<?xml version="1.0" encoding="UTF-8" standalone="no"?>
<svg
   xmlns:dc="http://purl.org/dc/elements/1.1/"
   xmlns:cc="http://creativecommons.org/ns#"
   xmlns:rdf="http://www.w3.org/1999/02/22-rdf-syntax-ns#"
   xmlns:svg="http://www.w3.org/2000/svg"
   xmlns="http://www.w3.org/2000/svg"
   xmlns:sodipodi="http://sodipodi.sourceforge.net/DTD/sodipodi-0.dtd"
   xmlns:inkscape="http://www.inkscape.org/namespaces/inkscape"
   width="480pt"
   height="290pt"
   viewBox="0 0 480 290"
   version="1.1"
   id="svg50"
   sodipodi:docname="SVGlogo.svg"
   inkscape:version="0.92.1 r15371">
  <metadata
     id="metadata56">
    <rdf:RDF>
      <cc:Work
         rdf:about="">
        <dc:format>image/svg+xml</dc:format>
        <dc:type
           rdf:resource="http://purl.org/dc/dcmitype/StillImage" />
        <dc:title></dc:title>
      </cc:Work>
    </rdf:RDF>
  </metadata>
  <defs
     id="defs54" />
  <sodipodi:namedview
     pagecolor="#ffffff"
     bordercolor="#666666"
     borderopacity="1"
     objecttolerance="10"
     gridtolerance="10"
     guidetolerance="10"
     inkscape:pageopacity="0"
     inkscape:pageshadow="2"
     inkscape:window-width="1280"
     inkscape:window-height="961"
     id="namedview52"
     showgrid="false"
     inkscape:zoom="0.98125"
     inkscape:cx="268.92469"
     inkscape:cy="186.12853"
     inkscape:window-x="-8"
     inkscape:window-y="-8"
     inkscape:window-maximized="1"
     inkscape:current-layer="svg50" />
  <g
     id="surface2"
     transform="matrix(1,0,0,1,-6,0)"
     style="fill:#ffffff">
    <path
       style="stroke:none;fill-rule:evenodd;fill:#ffffff;fill-opacity:1"
       d="M 324.699219 57.851562 L 323.000000 48.101562 L 313.250000 46.199219 L 323.000000 44.500000 L 324.898438 34.750000 L 326.601562 44.550781 L 336.351562 46.398438 L 326.601562 48.101562 L 324.699219 57.851562 "
       id="path2" />
    <path
       style="stroke:none;fill-rule:evenodd;fill:#ffffff;fill-opacity:1"
       d="M 334.949219 65.351562 L 333.800781 58.648438 L 327.148438 57.351562 L 333.851562 56.199219 L 335.101562 49.550781 L 336.300781 56.250000 L 342.949219 57.500000 L 336.250000 58.699219 L 334.949219 65.351562 "
       id="path4" />
    <path
       style="stroke:none;fill-rule:evenodd;fill:#ffffff;fill-opacity:1"
       d="M 318.851562 51.148438 C 318.351562 51.050781 313.714844 50.667969 304.949219 50.000000 C 296.183594 49.332031 286.214844 49.000000 275.050781 49.000000 C 263.851562 49.035156 254.382812 50.035156 246.648438 52.000000 C 246.382812 51.867188 243.117188 53.214844 236.851562 56.050781 C 230.582031 58.851562 222.882812 63.882812 213.750000 71.148438 C 213.382812 71.082031 209.917969 71.148438 203.351562 71.351562 C 196.785156 71.515625 189.199219 72.183594 180.601562 73.351562 C 172.000000 74.515625 164.484375 76.535156 158.050781 79.398438 C 149.214844 84.035156 143.582031 88.667969 141.148438 93.300781 C 138.714844 97.933594 137.566406 101.183594 137.699219 103.050781 C 137.265625 102.714844 138.667969 100.316406 141.898438 95.851562 C 145.101562 91.382812 152.699219 86.750000 164.699219 81.949219 C 176.734375 77.148438 195.714844 74.117188 221.648438 72.851562 C 221.816406 72.617188 223.898438 70.933594 227.898438 67.800781 C 231.867188 64.632812 236.683594 61.433594 242.351562 58.199219 C 248.015625 54.964844 253.464844 53.117188 258.699219 52.648438 C 264.199219 52.417969 271.648438 52.183594 281.050781 51.949219 C 290.417969 51.714844 298.949219 51.515625 306.648438 51.351562 C 314.316406 51.214844 318.382812 51.148438 318.851562 51.148438 "
       id="path6" />
    <path
       style="stroke:none;fill-rule:evenodd;fill:#ffffff;fill-opacity:1"
       d="M 222.351562 69.851562 C 222.617188 69.785156 226.433594 69.714844 233.800781 69.648438 C 241.199219 69.582031 250.632812 69.816406 262.101562 70.351562 C 273.566406 70.851562 285.550781 71.964844 298.050781 73.699219 C 297.785156 73.699219 294.167969 73.617188 287.199219 73.449219 C 280.265625 73.316406 271.617188 73.199219 261.250000 73.101562 C 250.917969 73.000000 240.535156 73.015625 230.101562 73.148438 C 219.667969 73.250000 210.816406 73.550781 203.550781 74.050781 L 222.351562 69.851562 "
       id="path8" />
    <path
       style="stroke:none;fill-rule:evenodd;fill:#ffffff;fill-opacity:1"
       d="M 137.898438 104.050781 C 138.234375 104.351562 139.949219 105.800781 143.050781 108.398438 C 146.117188 110.964844 148.601562 112.800781 150.500000 113.898438 C 152.000000 115.066406 152.882812 117.285156 153.148438 120.550781 C 153.382812 123.816406 153.183594 125.734375 152.550781 126.300781 C 151.714844 126.433594 149.800781 125.933594 146.800781 124.800781 C 143.800781 123.667969 141.066406 122.214844 138.601562 120.449219 C 139.035156 120.550781 140.832031 120.917969 144.000000 121.550781 C 147.132812 122.183594 148.964844 122.367188 149.500000 122.101562 C 149.832031 120.898438 150.082031 119.734375 150.250000 118.601562 C 150.382812 117.433594 149.464844 116.000000 147.500000 114.300781 C 145.933594 113.101562 144.148438 111.632812 142.148438 109.898438 C 140.148438 108.132812 138.734375 106.183594 137.898438 104.050781 "
       id="path10" />
    <path
       style="stroke:none;fill-rule:evenodd;fill:#ffffff;fill-opacity:1"
       d="M 263.351562 109.398438 C 262.882812 109.398438 259.535156 109.734375 253.300781 110.398438 C 247.066406 111.035156 240.648438 112.035156 234.050781 113.398438 C 227.484375 114.800781 223.449219 116.566406 221.949219 118.699219 C 220.183594 122.000000 218.917969 124.765625 218.148438 127.000000 C 217.351562 129.199219 218.234375 130.398438 220.800781 130.601562 C 223.000000 130.667969 226.933594 130.566406 232.601562 130.300781 C 238.300781 130.066406 243.683594 129.800781 248.750000 129.500000 C 253.816406 129.234375 256.515625 129.082031 256.851562 129.050781 C 256.484375 129.082031 253.816406 129.167969 248.851562 129.300781 C 243.882812 129.398438 238.867188 129.285156 233.800781 128.949219 C 228.765625 128.617188 225.949219 127.785156 225.351562 126.449219 C 225.117188 124.316406 225.566406 122.417969 226.699219 120.750000 C 227.867188 119.050781 229.183594 117.964844 230.648438 117.500000 C 232.316406 117.035156 235.734375 116.167969 240.898438 114.898438 C 246.066406 113.601562 251.015625 112.382812 255.750000 111.250000 C 260.484375 110.082031 263.015625 109.464844 263.351562 109.398438 "
       id="path12" />
    <path
       style="stroke:none;fill-rule:evenodd;fill:#ffffff;fill-opacity:1"
       d="M 151.851562 100.101562 L 174.250000 106.800781 C 174.617188 106.800781 177.667969 106.632812 183.398438 106.300781 C 189.101562 106.000000 195.351562 105.617188 202.148438 105.148438 C 208.949219 104.683594 214.132812 104.199219 217.699219 103.699219 C 217.265625 103.699219 214.015625 103.683594 207.949219 103.648438 C 201.851562 103.648438 195.484375 103.632812 188.851562 103.601562 C 182.250000 103.566406 177.964844 103.550781 176.000000 103.550781 C 174.234375 103.515625 171.449219 103.214844 167.648438 102.648438 C 163.882812 102.082031 160.351562 101.535156 157.050781 101.000000 C 153.785156 100.433594 152.050781 100.132812 151.851562 100.101562 "
       id="path14" />
    <path
       style="stroke:none;fill-rule:evenodd;fill:#ffffff;fill-opacity:1"
       d="M 245.500000 71.250000 C 245.300781 71.050781 241.734375 71.667969 234.800781 73.101562 C 227.867188 74.500000 218.714844 77.984375 207.351562 83.550781 C 207.882812 83.183594 213.250000 81.433594 223.449219 78.300781 C 233.617188 75.199219 245.398438 72.984375 258.800781 71.648438 L 245.500000 71.250000 "
       id="path16" />
    <path
       style="stroke:none;fill-rule:evenodd;fill:#ffffff;fill-opacity:1"
       d="M 175.199219 78.601562 C 174.601562 78.500000 171.617188 79.535156 166.250000 81.699219 C 160.917969 83.867188 156.785156 87.667969 153.851562 93.101562 C 153.882812 92.933594 154.484375 91.648438 155.648438 89.250000 C 156.785156 86.882812 158.332031 84.449219 160.300781 81.949219 L 175.199219 78.601562 "
       id="path18" />
    <path
       style="stroke:none;fill-rule:evenodd;fill:#ffffff;fill-opacity:1"
       d="M 275.398438 139.550781 C 275.398438 139.351562 275.750000 137.265625 276.449219 133.300781 C 277.117188 129.332031 278.148438 124.632812 279.550781 119.199219 C 280.917969 113.765625 282.632812 108.765625 284.699219 104.199219 C 286.199219 101.000000 288.250000 98.050781 290.851562 95.351562 C 293.484375 92.683594 296.250000 91.367188 299.148438 91.398438 C 302.050781 91.398438 304.632812 93.898438 306.898438 98.898438 C 310.000000 107.265625 310.882812 115.316406 309.550781 123.050781 C 308.250000 130.785156 306.683594 136.183594 304.851562 139.250000 C 305.015625 139.117188 307.250000 138.332031 311.550781 136.898438 C 315.816406 135.433594 321.167969 134.066406 327.601562 132.800781 C 334.464844 131.535156 341.601562 130.250000 349.000000 128.949219 C 356.367188 127.648438 360.351562 126.949219 360.949219 126.851562 C 361.148438 126.617188 362.167969 124.464844 364.000000 120.398438 C 365.800781 116.332031 367.250000 111.667969 368.351562 106.398438 C 369.316406 101.265625 370.617188 96.933594 372.250000 93.398438 C 373.851562 89.832031 375.300781 87.617188 376.601562 86.750000 C 378.000000 85.917969 379.382812 86.566406 380.750000 88.699219 C 382.148438 90.867188 382.667969 94.917969 382.300781 100.851562 C 382.632812 100.382812 382.867188 98.000000 383.000000 93.699219 C 383.132812 89.398438 381.214844 86.050781 377.250000 83.648438 C 374.449219 82.582031 372.117188 83.734375 370.250000 87.101562 C 368.417969 90.464844 366.851562 94.632812 365.550781 99.601562 C 364.250000 104.566406 363.035156 108.949219 361.898438 112.750000 C 359.699219 118.683594 358.417969 121.851562 358.050781 122.250000 C 357.617188 122.316406 354.167969 122.917969 347.699219 124.050781 C 341.234375 125.183594 334.382812 126.464844 327.148438 127.898438 C 319.949219 129.332031 315.035156 130.500000 312.398438 131.398438 C 312.667969 131.132812 313.214844 128.117188 314.050781 122.351562 C 314.882812 116.582031 314.464844 109.851562 312.800781 102.148438 C 310.601562 94.550781 307.332031 89.816406 303.000000 87.949219 C 298.632812 86.050781 294.316406 86.734375 290.050781 90.000000 C 284.617188 94.601562 280.683594 100.867188 278.250000 108.800781 C 275.816406 116.734375 274.066406 125.066406 273.000000 133.800781 L 275.398438 139.550781 "
       id="path20" />
    <path
       style="stroke:none;fill-rule:evenodd;fill:#ffffff;fill-opacity:1"
       d="M 342.101562 60.800781 C 342.332031 60.964844 343.867188 61.949219 346.699219 63.750000 C 349.535156 65.582031 352.183594 67.234375 354.648438 68.699219 C 357.183594 69.933594 360.601562 70.984375 364.898438 71.851562 C 369.199219 72.683594 372.332031 73.648438 374.300781 74.750000 C 374.000000 74.683594 371.648438 74.265625 367.250000 73.500000 C 362.816406 72.699219 358.101562 72.000000 353.101562 71.398438 C 351.632812 70.832031 349.500000 69.035156 346.699219 66.000000 C 343.933594 62.964844 342.398438 61.234375 342.101562 60.800781 "
       id="path22" />
    <path
       style="stroke:none;fill-rule:evenodd;fill:#ffffff;fill-opacity:1"
       d="M 315.300781 73.351562 C 315.601562 73.316406 317.917969 73.132812 322.250000 72.800781 C 326.582031 72.464844 331.199219 72.117188 336.101562 71.750000 C 341.035156 71.351562 344.500000 71.082031 346.500000 70.949219 C 346.265625 70.648438 343.167969 70.285156 337.199219 69.851562 C 331.234375 69.382812 323.933594 70.550781 315.300781 73.351562 "
       id="path24" />
    <path
       style="stroke:none;fill-rule:evenodd;fill:#ffffff;fill-opacity:1"
       d="M 159.250000 122.050781 L 174.500000 126.199219 L 196.750000 124.648438 L 174.250000 127.750000 L 159.250000 122.050781 "
       id="path26" />
    <path
       style="stroke:none;fill-rule:evenodd;fill:#ffffff;fill-opacity:1"
       d="M 272.050781 145.898438 C 271.648438 145.898438 267.683594 145.882812 260.148438 145.851562 C 252.648438 145.851562 244.015625 145.816406 234.250000 145.750000 C 224.484375 145.648438 216.035156 145.515625 208.898438 145.351562 L 204.800781 141.750000 L 157.199219 138.648438 L 206.898438 137.351562 L 210.800781 141.351562 L 272.050781 145.898438 "
       id="path28" />
    <path
       style="stroke:none;fill-rule:evenodd;fill:#ffffff;fill-opacity:1"
       d="M 331.250000 90.000000 L 357.351562 81.949219 C 357.617188 81.785156 359.148438 80.898438 361.949219 79.300781 C 364.750000 77.699219 367.183594 76.433594 369.250000 75.500000 C 369.015625 75.398438 367.351562 75.582031 364.250000 76.050781 C 361.148438 76.515625 357.984375 77.800781 354.750000 79.898438 L 331.250000 90.000000 "
       id="path30" />
    <path
       style="stroke:none;fill-rule:evenodd;fill:#ffffff;fill-opacity:1"
       d="M 309.898438 71.648438 L 318.398438 58.851562 L 304.449219 72.050781 L 309.898438 71.648438 "
       id="path32" />
    <path
       style="stroke:none;fill-rule:evenodd;fill:#ffffff;fill-opacity:1"
       d="M 385.800781 115.148438 C 386.265625 115.183594 387.398438 116.351562 389.199219 118.648438 C 391.000000 120.917969 390.734375 124.101562 388.398438 128.199219 C 386.101562 132.300781 379.000000 137.066406 367.101562 142.500000 C 355.199219 147.964844 335.765625 153.882812 308.800781 160.250000 L 253.101562 160.250000 C 253.535156 160.214844 258.667969 159.250000 268.500000 157.351562 C 278.367188 155.449219 290.367188 152.917969 304.500000 149.750000 C 318.632812 146.582031 332.351562 143.035156 345.648438 139.101562 C 358.984375 135.167969 369.332031 131.132812 376.699219 127.000000 C 384.035156 122.898438 385.851562 118.949219 382.148438 115.148438 L 385.800781 115.148438 "
       id="path34" />
    <path
       style="stroke:none;fill-rule:evenodd;fill:#ffffff;fill-opacity:1"
       d="M 173.050781 141.550781 C 172.949219 142.082031 167.648438 144.750000 157.148438 149.550781 C 146.683594 154.351562 131.632812 158.167969 112.000000 161.000000 L 63.601562 161.000000 C 63.867188 161.000000 67.132812 160.550781 73.398438 159.648438 C 79.667969 158.750000 87.234375 157.417969 96.101562 155.648438 C 104.964844 153.917969 113.464844 151.785156 121.601562 149.250000 C 129.734375 146.683594 135.816406 143.750000 139.851562 140.449219 L 173.050781 141.550781 "
       id="path36" />
    <path
       style="stroke:none;fill-rule:evenodd;fill:#ffffff;fill-opacity:1"
       d="M 276.199219 102.550781 C 276.234375 102.250000 277.316406 100.417969 279.449219 97.050781 C 281.550781 93.648438 284.433594 90.449219 288.101562 87.449219 C 291.765625 84.417969 295.949219 83.316406 300.648438 84.148438 C 300.550781 83.882812 299.234375 83.515625 296.699219 83.050781 C 294.167969 82.582031 291.035156 83.582031 287.300781 86.050781 C 283.566406 88.515625 279.867188 94.015625 276.199219 102.550781 "
       id="path38" />
    <path
       style="stroke:none;fill-rule:evenodd;fill:#ffffff;fill-opacity:1"
       d="M 362.250000 101.750000 C 362.214844 101.515625 362.566406 99.800781 363.300781 96.601562 C 364.000000 93.398438 365.300781 90.183594 367.199219 86.949219 C 369.066406 83.683594 371.714844 81.832031 375.148438 81.398438 C 375.015625 81.167969 374.000000 80.933594 372.101562 80.699219 C 370.199219 80.464844 368.214844 81.734375 366.148438 84.500000 C 364.117188 87.265625 362.816406 93.015625 362.250000 101.750000 "
       id="path40" />
    <path
       style="stroke:none;fill-rule:evenodd;fill:#ffffff;fill-opacity:1"
       d="M 290.250000 76.449219 C 290.050781 76.449219 288.351562 77.050781 285.148438 78.250000 C 281.949219 79.417969 278.398438 81.148438 274.500000 83.449219 C 270.601562 85.750000 267.500000 88.550781 265.199219 91.851562 C 264.832031 91.816406 264.351562 91.183594 263.750000 89.949219 C 263.117188 88.683594 264.484375 86.898438 267.851562 84.601562 C 271.214844 82.300781 278.683594 79.582031 290.250000 76.449219 "
       id="path42" />
  </g>
  <g
     id="surface4">
    <text
       style="fill:#ffffff;"
       font-family="Audiowide"
       font-size="50"
       transform="matrix(1.1353693936873712,0,0,1.1353693936873712,124.59488122925886,218.9403430232464)"
       xml:space="preserve"
       id="text45"><![CDATA[HIGCAR]]></text>
    <text
       style="font-size:57px;font-family:Audiowide;fill:#ffffff;"
       font-size="57"
       transform="matrix(0.53513551,0,0,0.53513551,85.838588,258.97757)"
       xml:space="preserve"
       id="text47"><![CDATA[Centro automotivo]]></text>
  </g>
</svg>
